<?xml version="1.0" standalone="no"?>
<!DOCTYPE svg PUBLIC "-//W3C//DTD SVG 20010904//EN"
 "http://www.w3.org/TR/2001/REC-SVG-20010904/DTD/svg10.dtd">
<svg version="1.0" xmlns="http://www.w3.org/2000/svg"
 width="564.000000pt" height="564.000000pt" viewBox="0 0 564.000000 564.000000"
 preserveAspectRatio="xMidYMid meet">
<metadata>
Created by potrace 1.14, written by Peter Selinger 2001-2017
</metadata>
<g transform="translate(0.000000,564.000000) scale(0.100000,-0.100000)"
fill="#000000" stroke="none">
<path d="M2618 5635 c-2 -1 -34 -5 -73 -9 -330 -28 -721 -145 -1035 -309 -253
-132 -537 -346 -720 -541 -36 -38 -74 -79 -85 -90 -32 -34 -129 -156 -171
-216 -21 -30 -42 -59 -47 -65 -21 -27 -94 -145 -89 -145 3 0 -2 -8 -10 -17
-31 -36 -188 -357 -188 -385 0 -8 -4 -18 -9 -23 -16 -17 -98 -286 -125 -410
-26 -123 -41 -216 -54 -340 -9 -90 -8 -472 1 -550 10 -81 26 -184 32 -215 3
-14 8 -38 10 -55 18 -100 98 -379 131 -452 8 -17 14 -33 14 -36 0 -3 14 -36
31 -74 178 -394 384 -684 686 -963 39 -36 79 -72 89 -80 249 -200 450 -323
689 -424 50 -21 104 -44 120 -51 88 -39 393 -124 500 -139 22 -3 52 -9 67 -12
137 -28 593 -40 743 -19 67 10 265 43 290 49 11 2 43 9 70 16 169 38 418 130
600 222 66 34 130 66 142 72 13 6 23 14 23 19 0 4 5 7 10 7 23 0 270 172 376
263 306 259 573 605 729 943 73 158 97 220 153 394 45 139 93 380 109 545 10
99 10 457 1 545 -8 70 -25 190 -33 230 -17 89 -34 168 -39 185 -1 6 -8 30 -15
55 -64 236 -193 538 -305 715 -275 433 -529 687 -961 960 -259 165 -696 325
-1010 370 -16 2 -66 10 -110 16 -69 10 -528 22 -537 14z"/>
</g>
</svg>
